PathFileType	4	(X/Y/Z)	 2.6Hz3min.trc
DataRate	CameraRate	NumFrames	NumMarkers	Units	OrigDataRate	OrigDataStartFrame	OrigNumFrames
200	200	8	43	m	200	251	1000
Frame#	Time	C7			LSH			RSH			MAN			RASI			LASI			HIPR			HIPL			RPSI			LPSI			COX			RTHI1			RTHI2			RTHI3			RTHI4			RLKN			RMKN			RSHA1			RSHA2			RSHA3			RSHA4			RLMAL			RMMAL			RHEEL			RMET5			RMET1			RTOE			LTHI1			LTHI2			LTHI3			LTHI4			LLKN			LMKN			LSHA1			LSHA2			LSHA3			LSHA4			LLMAL			LMMAL			LHEEL			LMET5			LMET1			LTOE			
		X1	Y1	Z1	X2	Y2	Z2	X3	Y3	Z3	X4	Y4	Z4	X5	Y5	Z5	X6	Y6	Z6	X7	Y7	Z7	X8	Y8	Z8	X9	Y9	Z9	X10	Y10	Z10	X11	Y11	Z11	X12	Y12	Z12	X13	Y13	Z13	X14	Y14	Z14	X15	Y15	Z15	X16	Y16	Z16	X17	Y17	Z17	X18	Y18	Z18	X19	Y19	Z19	X20	Y20	Z20	X21	Y21	Z21	X22	Y22	Z22	X23	Y23	Z23	X24	Y24	Z24	X25	Y25	Z25	X26	Y26	Z26	X27	Y27	Z27	X28	Y28	Z28	X29	Y29	Z29	X30	Y30	Z30	X31	Y31	Z31	X32	Y32	Z32	X33	Y33	Z33	X34	Y34	Z34	X35	Y35	Z35	X36	Y36	Z36	X37	Y37	Z37	X38	Y38	Z38	X39	Y39	Z39	X40	Y40	Z40	X41	Y41	Z41	X42	Y42	Z42	X43	Y43	Z43	
251	1.2550	-0.267831	1.530868	-0.471523	-0.240877	1.542429	-0.652726	-0.198369	1.526684	-0.303186	-0.141444	1.474342	-0.483179	-0.135640	1.042242	-0.386116	-0.143074	1.050982	-0.602522	-0.181718	1.091629	-0.350134	-0.207022	1.097438	-0.628731	-0.285134	1.091763	-0.425400	-0.286886	1.096565	-0.538382	-0.289822	1.095262	-0.483793	-0.237426	0.849836	-0.302699	-0.238558	0.788444	-0.300896	-0.166284	0.795206	-0.303997	-0.172551	0.854513	-0.307067	-0.218675	0.540505	-0.309964	-0.203936	0.519418	-0.407818	-0.315688	0.365135	-0.302278	-0.320996	0.323541	-0.312142	-0.264011	0.317962	-0.290609	-0.261085	0.357811	-0.286104	-0.299626	0.167931	-0.300951	-0.274491	0.173743	-0.377360	-0.348763	0.164770	-0.345275	-0.233539	0.056596	-0.280951	-0.191077	0.052820	-0.350548	-0.167419	0.044223	-0.347204	-0.255977	0.830788	-0.682263	-0.257112	0.771028	-0.685558	-0.184061	0.772428	-0.689182	-0.191680	0.833900	-0.686061	-0.240250	0.544197	-0.681662	-0.233141	0.526268	-0.577783	-0.324279	0.345814	-0.697220	-0.329752	0.305830	-0.692485	-0.268723	0.302049	-0.702177	-0.270762	0.345861	-0.705795	-0.305730	0.176021	-0.703419	-0.296975	0.178049	-0.627499	-0.360300	0.174697	-0.665925	-0.239361	0.052505	-0.701592	-0.211584	0.052391	-0.631440	-0.192885	0.040175	-0.635807	
252	1.2600	-0.267918	1.532990	-0.471427	-0.240926	1.544568	-0.652630	-0.198592	1.528700	-0.302980	-0.141479	1.476601	-0.482988	-0.135477	1.044323	-0.386054	-0.142759	1.053147	-0.602303	-0.181330	1.093974	-0.350097	-0.206618	1.099907	-0.628582	-0.284885	1.094321	-0.425257	-0.286618	1.099162	-0.538253	-0.289567	1.097914	-0.483720	-0.237682	0.851936	-0.302602	-0.238905	0.790539	-0.300902	-0.166632	0.797193	-0.303983	-0.172798	0.856516	-0.306953	-0.219048	0.542571	-0.310129	-0.204290	0.521495	-0.408050	-0.315500	0.366861	-0.302388	-0.320694	0.325253	-0.312296	-0.263719	0.319795	-0.290789	-0.260852	0.359631	-0.286321	-0.299125	0.169750	-0.301186	-0.273825	0.175531	-0.377545	-0.348108	0.166083	-0.345848	-0.232306	0.059426	-0.280282	-0.189272	0.055700	-0.349416	-0.165590	0.047414	-0.345762	-0.256251	0.833037	-0.682002	-0.257574	0.773277	-0.685248	-0.184526	0.774461	-0.689014	-0.191950	0.835957	-0.685931	-0.240591	0.546327	-0.681179	-0.233801	0.528391	-0.577292	-0.323829	0.347661	-0.697229	-0.329207	0.307671	-0.692547	-0.268156	0.304066	-0.701876	-0.270281	0.347893	-0.705530	-0.304630	0.178017	-0.703385	-0.296329	0.179868	-0.627459	-0.359461	0.176409	-0.666201	-0.237714	0.055097	-0.701756	-0.210434	0.054227	-0.631845	-0.191790	0.041913	-0.636703	
253	1.2650	-0.268001	1.534850	-0.471336	-0.240955	1.546413	-0.652580	-0.198803	1.530419	-0.302745	-0.141403	1.478484	-0.482782	-0.135379	1.046153	-0.385968	-0.142509	1.055033	-0.602101	-0.181071	1.095934	-0.350023	-0.206285	1.102017	-0.628453	-0.284703	1.096527	-0.425112	-0.286418	1.101412	-0.538133	-0.289371	1.100207	-0.483633	-0.237894	0.853765	-0.302522	-0.239153	0.792364	-0.300909	-0.166889	0.798968	-0.303961	-0.173006	0.858300	-0.306845	-0.219170	0.544379	-0.310280	-0.204478	0.523340	-0.408242	-0.315372	0.368489	-0.302482	-0.320498	0.326831	-0.312516	-0.263546	0.321419	-0.291036	-0.260684	0.361253	-0.286576	-0.298960	0.171391	-0.301588	-0.273460	0.177147	-0.377837	-0.347767	0.167040	-0.346553	-0.231074	0.062331	-0.279549	-0.187360	0.058730	-0.348241	-0.163611	0.050857	-0.344525	-0.256428	0.834999	-0.681756	-0.257900	0.775227	-0.684952	-0.184854	0.776245	-0.688838	-0.192125	0.837760	-0.685793	-0.240651	0.548207	-0.680718	-0.234239	0.530309	-0.576838	-0.323468	0.349415	-0.697265	-0.328831	0.309422	-0.692603	-0.267781	0.305868	-0.701507	-0.269886	0.349703	-0.705216	-0.303978	0.179841	-0.703233	-0.296101	0.181484	-0.627291	-0.359030	0.177806	-0.666274	-0.236249	0.057725	-0.702033	-0.209267	0.056275	-0.632363	-0.190573	0.044110	-0.637648	
254	1.2700	-0.268078	1.536451	-0.471247	-0.240959	1.547972	-0.652574	-0.199003	1.531842	-0.302481	-0.141378	1.480090	-0.482599	-0.135342	1.047738	-0.385865	-0.142327	1.056652	-0.601921	-0.180944	1.097525	-0.349911	-0.206025	1.103764	-0.628340	-0.284590	1.098387	-0.424966	-0.286282	1.103313	-0.538028	-0.289236	1.102139	-0.483538	-0.238056	0.855325	-0.302456	-0.239302	0.793929	-0.300907	-0.167048	0.800533	-0.303931	-0.173166	0.859875	-0.306748	-0.219067	0.545940	-0.310410	-0.204521	0.524961	-0.408395	-0.315286	0.369981	-0.302661	-0.320380	0.328265	-0.312830	-0.263479	0.322854	-0.291328	-0.260572	0.362680	-0.286861	-0.299051	0.172854	-0.302099	-0.273309	0.178594	-0.378208	-0.347655	0.167679	-0.347332	-0.229854	0.065209	-0.278842	-0.185451	0.061828	-0.347090	-0.161619	0.054378	-0.343469	-0.256494	0.836671	-0.681538	-0.258066	0.776892	-0.684683	-0.185028	0.777786	-0.688656	-0.192192	0.839318	-0.685649	-0.240484	0.549851	-0.680290	-0.234494	0.532020	-0.576421	-0.323217	0.351065	-0.697317	-0.328624	0.311066	-0.692631	-0.267547	0.307468	-0.701104	-0.269590	0.351306	-0.704869	-0.303743	0.181478	-0.702978	-0.296135	0.182912	-0.627018	-0.358941	0.178903	-0.666113	-0.234992	0.060317	-0.702452	-0.208078	0.058479	-0.632971	-0.189273	0.046579	-0.638504	
255	1.2750	-0.268148	1.537794	-0.471155	-0.240947	1.549247	-0.652604	-0.199179	1.532977	-0.302202	-0.141367	1.481455	-0.482431	-0.135363	1.049091	-0.385748	-0.142215	1.058010	-0.601767	-0.180940	1.098771	-0.349766	-0.205836	1.105157	-0.628243	-0.284543	1.099909	-0.424828	-0.286202	1.104867	-0.537925	-0.289172	1.103722	-0.483452	-0.238153	0.856641	-0.302402	-0.239352	0.795246	-0.300893	-0.167111	0.801885	-0.303886	-0.173263	0.861246	-0.306670	-0.218799	0.547271	-0.310527	-0.204453	0.526367	-0.408512	-0.315256	0.371353	-0.302900	-0.320382	0.329614	-0.313144	-0.263477	0.324106	-0.291635	-0.260510	0.363932	-0.287146	-0.299285	0.174135	-0.302615	-0.273308	0.179866	-0.378626	-0.347700	0.168038	-0.348134	-0.228680	0.067992	-0.278188	-0.183621	0.064854	-0.345988	-0.159705	0.057842	-0.342476	-0.256444	0.838055	-0.681357	-0.258069	0.778274	-0.684458	-0.185039	0.779102	-0.688473	-0.192143	0.840644	-0.685505	-0.240149	0.551263	-0.679911	-0.234606	0.533518	-0.576041	-0.323084	0.352581	-0.697365	-0.328568	0.312584	-0.692609	-0.267453	0.308876	-0.700686	-0.269399	0.352687	-0.704482	-0.303860	0.182926	-0.702630	-0.296312	0.184146	-0.626656	-0.359129	0.179723	-0.665725	-0.233948	0.062851	-0.702993	-0.206882	0.060741	-0.633654	-0.187921	0.049189	-0.639254	
256	1.2800	-0.268211	1.538887	-0.471061	-0.240914	1.550254	-0.652662	-0.199328	1.533842	-0.301907	-0.141363	1.482582	-0.482279	-0.135437	1.050216	-0.385623	-0.142166	1.059123	-0.601635	-0.181049	1.099704	-0.349595	-0.205711	1.106213	-0.628161	-0.284561	1.101108	-0.424704	-0.286176	1.106082	-0.537828	-0.289178	1.104964	-0.483372	-0.238179	0.857723	-0.302355	-0.239302	0.796328	-0.300858	-0.167074	0.803034	-0.303834	-0.173292	0.862411	-0.306611	-0.218411	0.548374	-0.310635	-0.204293	0.527557	-0.408604	-0.315252	0.372581	-0.303178	-0.320442	0.330833	-0.313481	-0.263549	0.325180	-0.291962	-0.260504	0.364990	-0.287480	-0.299608	0.175243	-0.303073	-0.273410	0.180972	-0.379071	-0.347867	0.168185	-0.348947	-0.227609	0.070565	-0.277641	-0.181887	0.067730	-0.344981	-0.157936	0.061124	-0.341419	-0.256281	0.839168	-0.681213	-0.257909	0.779385	-0.684279	-0.184881	0.780209	-0.688284	-0.191976	0.841753	-0.685356	-0.239690	0.552446	-0.679583	-0.234597	0.534800	-0.575704	-0.323069	0.353924	-0.697358	-0.328650	0.313939	-0.692515	-0.267483	0.310081	-0.700266	-0.269321	0.353861	-0.704092	-0.304260	0.184179	-0.702205	-0.296593	0.185186	-0.626226	-0.359540	0.180270	-0.665138	-0.233105	0.065325	-0.703636	-0.205703	0.062947	-0.634399	-0.186588	0.051771	-0.640059	
257	1.2850	-0.268266	1.539739	-0.470963	-0.240864	1.550993	-0.652747	-0.199448	1.534420	-0.301610	-0.141383	1.483477	-0.482143	-0.135559	1.051122	-0.385500	-0.142175	1.060005	-0.601525	-0.181248	1.100354	-0.349406	-0.205649	1.106959	-0.628094	-0.284643	1.101998	-0.424590	-0.286203	1.106972	-0.537739	-0.289254	1.105880	-0.483299	-0.238123	0.858577	-0.302313	-0.239161	0.797188	-0.300803	-0.166939	0.803979	-0.303782	-0.173245	0.863363	-0.306578	-0.217957	0.549233	-0.310735	-0.204059	0.528525	-0.408676	-0.315263	0.373651	-0.303484	-0.320504	0.331849	-0.313892	-0.263677	0.326088	-0.292284	-0.260533	0.365904	-0.287717	-0.299977	0.176174	-0.303477	-0.273602	0.181904	-0.379529	-0.348127	0.168160	-0.349739	-0.226659	0.072882	-0.277228	-0.180354	0.070379	-0.344103	-0.156324	0.064108	-0.340306	-0.256011	0.840017	-0.681096	-0.257596	0.780234	-0.684146	-0.184568	0.781109	-0.688085	-0.191701	0.842649	-0.685193	-0.239153	0.553392	-0.679309	-0.234482	0.535856	-0.575412	-0.323151	0.355095	-0.697298	-0.328844	0.315115	-0.692330	-0.267617	0.311049	-0.699848	-0.269351	0.354825	-0.703708	-0.304871	0.185223	-0.701727	-0.297021	0.186029	-0.625732	-0.360128	0.180551	-0.664393	-0.232445	0.067643	-0.704341	-0.204612	0.065012	-0.635225	-0.185358	0.054155	-0.640970	
258	1.2900	-0.268309	1.540348	-0.470861	-0.240792	1.551470	-0.652854	-0.199539	1.534738	-0.301309	-0.141426	1.484167	-0.482022	-0.135723	1.051811	-0.385384	-0.142241	1.060671	-0.601434	-0.181525	1.100745	-0.349209	-0.205664	1.107415	-0.628043	-0.284787	1.102594	-0.424492	-0.286288	1.107546	-0.537655	-0.289396	1.106483	-0.483230	-0.237983	0.859215	-0.302271	-0.238933	0.797824	-0.300727	-0.166716	0.804705	-0.303743	-0.173120	0.864103	-0.306572	-0.217480	0.549861	-0.310831	-0.203763	0.529267	-0.408731	-0.315292	0.374532	-0.303811	-0.320633	0.332732	-0.314257	-0.263853	0.326802	-0.292598	-0.260596	0.366619	-0.287945	-0.300362	0.176928	-0.303784	-0.273870	0.182665	-0.379996	-0.348448	0.167982	-0.350470	-0.225837	0.074887	-0.276948	-0.179043	0.072776	-0.343392	-0.154912	0.066779	-0.339275	-0.255638	0.840615	-0.681006	-0.257143	0.780840	-0.684053	-0.184113	0.781803	-0.687874	-0.191317	0.843340	-0.685012	-0.238574	0.554092	-0.679091	-0.234279	0.536672	-0.575164	-0.323322	0.356042	-0.697144	-0.329130	0.316067	-0.692061	-0.267836	0.311787	-0.699448	-0.269476	0.355560	-0.703326	-0.305635	0.186052	-0.701217	-0.297652	0.186653	-0.625165	-0.360859	0.180580	-0.663545	-0.231926	0.069773	-0.705008	-0.203614	0.066896	-0.636088	-0.184262	0.056310	-0.641969	
